<?xml version="1.0" encoding="UTF-8" standalone="no"?>
<!DOCTYPE svg PUBLIC "-//W3C//DTD SVG 1.1//EN" "http://www.w3.org/Graphics/SVG/1.1/DTD/svg11.dtd">
<svg version="1.1" xmlns="http://www.w3.org/2000/svg" xmlns:xlink="http://www.w3.org/1999/xlink" preserveAspectRatio="xMidYMid meet" viewBox="119 -1.0000000000000036 28 28.000000000000004" width="24" height="24"><defs><path d="M144 0C144 0 144 0 144 0C144 14.4 144 22.4 144 24C144 24 144 24 144 24C129.6 24 121.6 24 120 24C120 24 120 24 120 24C120 9.6 120 1.6 120 0C120 0 120 0 120 0C134.4 0 142.4 0 144 0Z" id="bgOf4wTvG"></path><path d="M120 0L123 3L141 3L144 0" id="a8SH632I17"></path><path d="M123 21L120 24L120 0L123 3L123 21Z" id="bZn0owmn"></path><path d="M120 24L123 21L141 21L144 24" id="b3tKcUh01m"></path></defs><g><g><use xlink:href="#bgOf4wTvG" opacity="1" fill="#0000f0" fill-opacity="1"></use><g><use xlink:href="#bgOf4wTvG" opacity="1" fill-opacity="0" stroke="#000000" stroke-width="1" stroke-opacity="0"></use></g></g><g><use xlink:href="#a8SH632I17" opacity="1" fill="#ffffff" fill-opacity="0.7"></use><g><use xlink:href="#a8SH632I17" opacity="1" fill-opacity="0" stroke="#000000" stroke-width="1" stroke-opacity="0"></use></g></g><g><use xlink:href="#bZn0owmn" opacity="1" fill="#000000" fill-opacity="0.1"></use><g><use xlink:href="#bZn0owmn" opacity="1" fill-opacity="0" stroke="#000000" stroke-width="1" stroke-opacity="0"></use></g></g><g><use xlink:href="#b3tKcUh01m" opacity="1" fill="#000000" fill-opacity="0.5"></use><g><use xlink:href="#b3tKcUh01m" opacity="1" fill-opacity="0" stroke="#000000" stroke-width="1" stroke-opacity="0"></use></g></g></g></svg>