<?xml version="1.0" encoding="UTF-8" standalone="no"?>
<!DOCTYPE svg PUBLIC "-//W3C//DTD SVG 1.1//EN" "http://www.w3.org/Graphics/SVG/1.1/DTD/svg11.dtd">
<svg version="1.1" xmlns="http://www.w3.org/2000/svg" xmlns:xlink="http://www.w3.org/1999/xlink" preserveAspectRatio="xMidYMid meet" viewBox="139 19 76 52" width="72" height="48"><defs><path d="M164 20C164 20 164 20 164 20C164 34.4 164 42.4 164 44C164 44 164 44 164 44C149.6 44 141.6 44 140 44C140 44 140 44 140 44C140 29.6 140 21.6 140 20C140 20 140 20 140 20C154.4 20 162.4 20 164 20Z" id="a1AXhu5aP7"></path><path d="M140 20L143 23L161 23L164 20" id="cPjwtJ37o"></path><path d="M143 41L140 44L140 20L143 23L143 41Z" id="b1aSolyVNv"></path><path d="M140 44L143 41L161 41L164 44" id="cFOALvZ3a"></path><path d="M164 44C164 44 164 44 164 44C164 58.4 164 66.4 164 68C164 68 164 68 164 68C149.6 68 141.6 68 140 68C140 68 140 68 140 68C140 53.6 140 45.6 140 44C140 44 140 44 140 44C154.4 44 162.4 44 164 44Z" id="d2kGB3UU90"></path><path d="M140 44L143 47L161 47L164 44" id="f1SqIIkZhj"></path><path d="M143 65L140 68L140 44L143 47L143 65Z" id="abR3WpMTAW"></path><path d="M140 68L143 65L161 65L164 68" id="aQCZkjB3"></path><path d="M188 44C188 44 188 44 188 44C188 58.4 188 66.4 188 68C188 68 188 68 188 68C173.6 68 165.6 68 164 68C164 68 164 68 164 68C164 53.6 164 45.6 164 44C164 44 164 44 164 44C178.4 44 186.4 44 188 44Z" id="c15VWC1Gth"></path><path d="M164 44L167 47L185 47L188 44" id="beHY7Ffs"></path><path d="M167 65L164 68L164 44L167 47L167 65Z" id="b5BljzZJy"></path><path d="M164 68L167 65L185 65L188 68" id="d4fClKfKUq"></path><path d="M212 44C212 44 212 44 212 44C212 58.4 212 66.4 212 68C212 68 212 68 212 68C197.6 68 189.6 68 188 68C188 68 188 68 188 68C188 53.6 188 45.6 188 44C188 44 188 44 188 44C202.4 44 210.4 44 212 44Z" id="hix9WAQOl"></path><path d="M188 44L191 47L209 47L212 44" id="b1ZZs5txI"></path><path d="M191 65L188 68L188 44L191 47L191 65Z" id="d7rmgf43M"></path><path d="M188 68L191 65L209 65L212 68" id="aD63B6rQl"></path></defs><g><g><use xlink:href="#a1AXhu5aP7" opacity="1" fill="#0000f0" fill-opacity="1"></use><g><use xlink:href="#a1AXhu5aP7" opacity="1" fill-opacity="0" stroke="#000000" stroke-width="1" stroke-opacity="0"></use></g></g><g><use xlink:href="#cPjwtJ37o" opacity="1" fill="#ffffff" fill-opacity="0.7"></use><g><use xlink:href="#cPjwtJ37o" opacity="1" fill-opacity="0" stroke="#000000" stroke-width="1" stroke-opacity="0"></use></g></g><g><use xlink:href="#b1aSolyVNv" opacity="1" fill="#000000" fill-opacity="0.1"></use><g><use xlink:href="#b1aSolyVNv" opacity="1" fill-opacity="0" stroke="#000000" stroke-width="1" stroke-opacity="0"></use></g></g><g><use xlink:href="#cFOALvZ3a" opacity="1" fill="#000000" fill-opacity="0.5"></use><g><use xlink:href="#cFOALvZ3a" opacity="1" fill-opacity="0" stroke="#000000" stroke-width="1" stroke-opacity="0"></use></g></g><g><use xlink:href="#d2kGB3UU90" opacity="1" fill="#0000f0" fill-opacity="1"></use><g><use xlink:href="#d2kGB3UU90" opacity="1" fill-opacity="0" stroke="#000000" stroke-width="1" stroke-opacity="0"></use></g></g><g><use xlink:href="#f1SqIIkZhj" opacity="1" fill="#ffffff" fill-opacity="0.7"></use><g><use xlink:href="#f1SqIIkZhj" opacity="1" fill-opacity="0" stroke="#000000" stroke-width="1" stroke-opacity="0"></use></g></g><g><use xlink:href="#abR3WpMTAW" opacity="1" fill="#000000" fill-opacity="0.1"></use><g><use xlink:href="#abR3WpMTAW" opacity="1" fill-opacity="0" stroke="#000000" stroke-width="1" stroke-opacity="0"></use></g></g><g><use xlink:href="#aQCZkjB3" opacity="1" fill="#000000" fill-opacity="0.5"></use><g><use xlink:href="#aQCZkjB3" opacity="1" fill-opacity="0" stroke="#000000" stroke-width="1" stroke-opacity="0"></use></g></g><g><use xlink:href="#c15VWC1Gth" opacity="1" fill="#0000f0" fill-opacity="1"></use><g><use xlink:href="#c15VWC1Gth" opacity="1" fill-opacity="0" stroke="#000000" stroke-width="1" stroke-opacity="0"></use></g></g><g><use xlink:href="#beHY7Ffs" opacity="1" fill="#ffffff" fill-opacity="0.7"></use><g><use xlink:href="#beHY7Ffs" opacity="1" fill-opacity="0" stroke="#000000" stroke-width="1" stroke-opacity="0"></use></g></g><g><use xlink:href="#b5BljzZJy" opacity="1" fill="#000000" fill-opacity="0.1"></use><g><use xlink:href="#b5BljzZJy" opacity="1" fill-opacity="0" stroke="#000000" stroke-width="1" stroke-opacity="0"></use></g></g><g><use xlink:href="#d4fClKfKUq" opacity="1" fill="#000000" fill-opacity="0.5"></use><g><use xlink:href="#d4fClKfKUq" opacity="1" fill-opacity="0" stroke="#000000" stroke-width="1" stroke-opacity="0"></use></g></g><g><use xlink:href="#hix9WAQOl" opacity="1" fill="#0000f0" fill-opacity="1"></use><g><use xlink:href="#hix9WAQOl" opacity="1" fill-opacity="0" stroke="#000000" stroke-width="1" stroke-opacity="0"></use></g></g><g><use xlink:href="#b1ZZs5txI" opacity="1" fill="#ffffff" fill-opacity="0.7"></use><g><use xlink:href="#b1ZZs5txI" opacity="1" fill-opacity="0" stroke="#000000" stroke-width="1" stroke-opacity="0"></use></g></g><g><use xlink:href="#d7rmgf43M" opacity="1" fill="#000000" fill-opacity="0.1"></use><g><use xlink:href="#d7rmgf43M" opacity="1" fill-opacity="0" stroke="#000000" stroke-width="1" stroke-opacity="0"></use></g></g><g><use xlink:href="#aD63B6rQl" opacity="1" fill="#000000" fill-opacity="0.5"></use><g><use xlink:href="#aD63B6rQl" opacity="1" fill-opacity="0" stroke="#000000" stroke-width="1" stroke-opacity="0"></use></g></g></g></svg>