<?xml version="1.0" encoding="UTF-8" standalone="no"?>
<!DOCTYPE svg PUBLIC "-//W3C//DTD SVG 1.1//EN" "http://www.w3.org/Graphics/SVG/1.1/DTD/svg11.dtd">
<svg version="1.1" xmlns="http://www.w3.org/2000/svg" xmlns:xlink="http://www.w3.org/1999/xlink" preserveAspectRatio="xMidYMid meet" viewBox="19 43 100 28" width="96" height="24"><defs><path d="M44 44C44 44 44 44 44 44C44 58.4 44 66.4 44 68C44 68 44 68 44 68C29.6 68 21.6 68 20 68C20 68 20 68 20 68C20 53.6 20 45.6 20 44C20 44 20 44 20 44C34.4 44 42.4 44 44 44Z" id="gqJkAHqkF"></path><path d="M20 44L23 47L41 47L44 44" id="b2yOK383d"></path><path d="M23 65L20 68L20 44L23 47L23 65Z" id="h1fDSGOn6t"></path><path d="M20 68L23 65L41 65L44 68" id="a16Y2dyZIt"></path><path d="M68 44C68 44 68 44 68 44C68 58.4 68 66.4 68 68C68 68 68 68 68 68C53.6 68 45.6 68 44 68C44 68 44 68 44 68C44 53.6 44 45.6 44 44C44 44 44 44 44 44C58.4 44 66.4 44 68 44Z" id="c2lOB5u2yu"></path><path d="M44 44L47 47L65 47L68 44" id="c1pg6sI96p"></path><path d="M47 65L44 68L44 44L47 47L47 65Z" id="a2DstMz7kL"></path><path d="M44 68L47 65L65 65L68 68" id="c592Zus8ip"></path><path d="M92 44C92 44 92 44 92 44C92 58.4 92 66.4 92 68C92 68 92 68 92 68C77.6 68 69.6 68 68 68C68 68 68 68 68 68C68 53.6 68 45.6 68 44C68 44 68 44 68 44C82.4 44 90.4 44 92 44Z" id="elEni4wz"></path><path d="M68 44L71 47L89 47L92 44" id="c3e7Pjk8X0"></path><path d="M71 65L68 68L68 44L71 47L71 65Z" id="c4Gn9LgLm"></path><path d="M68 68L71 65L89 65L92 68" id="lkJPeWzEu"></path><path d="M116 44C116 44 116 44 116 44C116 58.4 116 66.4 116 68C116 68 116 68 116 68C101.6 68 93.6 68 92 68C92 68 92 68 92 68C92 53.6 92 45.6 92 44C92 44 92 44 92 44C106.4 44 114.4 44 116 44Z" id="deVR7B4xx"></path><path d="M92 44L95 47L113 47L116 44" id="b218F14ckQ"></path><path d="M95 65L92 68L92 44L95 47L95 65Z" id="ciWlO6Of4"></path><path d="M92 68L95 65L113 65L116 68" id="b4J2CemKyI"></path></defs><g><g><use xlink:href="#gqJkAHqkF" opacity="1" fill="#00f0f0" fill-opacity="1"></use><g><use xlink:href="#gqJkAHqkF" opacity="1" fill-opacity="0" stroke="#000000" stroke-width="1" stroke-opacity="0"></use></g></g><g><use xlink:href="#b2yOK383d" opacity="1" fill="#ffffff" fill-opacity="0.7"></use><g><use xlink:href="#b2yOK383d" opacity="1" fill-opacity="0" stroke="#000000" stroke-width="1" stroke-opacity="0"></use></g></g><g><use xlink:href="#h1fDSGOn6t" opacity="1" fill="#000000" fill-opacity="0.1"></use><g><use xlink:href="#h1fDSGOn6t" opacity="1" fill-opacity="0" stroke="#000000" stroke-width="1" stroke-opacity="0"></use></g></g><g><use xlink:href="#a16Y2dyZIt" opacity="1" fill="#000000" fill-opacity="0.5"></use><g><use xlink:href="#a16Y2dyZIt" opacity="1" fill-opacity="0" stroke="#000000" stroke-width="1" stroke-opacity="0"></use></g></g><g><use xlink:href="#c2lOB5u2yu" opacity="1" fill="#00f0f0" fill-opacity="1"></use><g><use xlink:href="#c2lOB5u2yu" opacity="1" fill-opacity="0" stroke="#000000" stroke-width="1" stroke-opacity="0"></use></g></g><g><use xlink:href="#c1pg6sI96p" opacity="1" fill="#ffffff" fill-opacity="0.7"></use><g><use xlink:href="#c1pg6sI96p" opacity="1" fill-opacity="0" stroke="#000000" stroke-width="1" stroke-opacity="0"></use></g></g><g><use xlink:href="#a2DstMz7kL" opacity="1" fill="#000000" fill-opacity="0.1"></use><g><use xlink:href="#a2DstMz7kL" opacity="1" fill-opacity="0" stroke="#000000" stroke-width="1" stroke-opacity="0"></use></g></g><g><use xlink:href="#c592Zus8ip" opacity="1" fill="#000000" fill-opacity="0.5"></use><g><use xlink:href="#c592Zus8ip" opacity="1" fill-opacity="0" stroke="#000000" stroke-width="1" stroke-opacity="0"></use></g></g><g><use xlink:href="#elEni4wz" opacity="1" fill="#00f0f0" fill-opacity="1"></use><g><use xlink:href="#elEni4wz" opacity="1" fill-opacity="0" stroke="#000000" stroke-width="1" stroke-opacity="0"></use></g></g><g><use xlink:href="#c3e7Pjk8X0" opacity="1" fill="#ffffff" fill-opacity="0.7"></use><g><use xlink:href="#c3e7Pjk8X0" opacity="1" fill-opacity="0" stroke="#000000" stroke-width="1" stroke-opacity="0"></use></g></g><g><use xlink:href="#c4Gn9LgLm" opacity="1" fill="#000000" fill-opacity="0.1"></use><g><use xlink:href="#c4Gn9LgLm" opacity="1" fill-opacity="0" stroke="#000000" stroke-width="1" stroke-opacity="0"></use></g></g><g><use xlink:href="#lkJPeWzEu" opacity="1" fill="#000000" fill-opacity="0.5"></use><g><use xlink:href="#lkJPeWzEu" opacity="1" fill-opacity="0" stroke="#000000" stroke-width="1" stroke-opacity="0"></use></g></g><g><use xlink:href="#deVR7B4xx" opacity="1" fill="#00f0f0" fill-opacity="1"></use><g><use xlink:href="#deVR7B4xx" opacity="1" fill-opacity="0" stroke="#000000" stroke-width="1" stroke-opacity="0"></use></g></g><g><use xlink:href="#b218F14ckQ" opacity="1" fill="#ffffff" fill-opacity="0.7"></use><g><use xlink:href="#b218F14ckQ" opacity="1" fill-opacity="0" stroke="#000000" stroke-width="1" stroke-opacity="0"></use></g></g><g><use xlink:href="#ciWlO6Of4" opacity="1" fill="#000000" fill-opacity="0.1"></use><g><use xlink:href="#ciWlO6Of4" opacity="1" fill-opacity="0" stroke="#000000" stroke-width="1" stroke-opacity="0"></use></g></g><g><use xlink:href="#b4J2CemKyI" opacity="1" fill="#000000" fill-opacity="0.5"></use><g><use xlink:href="#b4J2CemKyI" opacity="1" fill-opacity="0" stroke="#000000" stroke-width="1" stroke-opacity="0"></use></g></g></g></svg>