<?xml version="1.0" encoding="UTF-8" standalone="no"?>
<!DOCTYPE svg PUBLIC "-//W3C//DTD SVG 1.1//EN" "http://www.w3.org/Graphics/SVG/1.1/DTD/svg11.dtd">
<svg version="1.1" xmlns="http://www.w3.org/2000/svg" xmlns:xlink="http://www.w3.org/1999/xlink" preserveAspectRatio="xMidYMid meet" viewBox="-1.0000000000000036 23 28.000000000000004 28" width="24" height="24"><defs><path d="M24 24C24 24 24 24 24 24C24 38.4 24 46.4 24 48C24 48 24 48 24 48C9.6 48 1.6 48 0 48C0 48 0 48 0 48C0 33.6 0 25.6 0 24C0 24 0 24 0 24C14.4 24 22.4 24 24 24Z" id="g4PygW4co"></path><path d="M0 24L3 27L21 27L24 24" id="ab4GaE9cf"></path><path d="M3 45L0 48L0 24L3 27L3 45Z" id="a14fsydDAU"></path><path d="M0 48L3 45L21 45L24 48" id="e2vkTlkiRT"></path></defs><g><g><use xlink:href="#g4PygW4co" opacity="1" fill="#00f0f0" fill-opacity="1"></use><g><use xlink:href="#g4PygW4co" opacity="1" fill-opacity="0" stroke="#000000" stroke-width="1" stroke-opacity="0"></use></g></g><g><use xlink:href="#ab4GaE9cf" opacity="1" fill="#ffffff" fill-opacity="0.7"></use><g><use xlink:href="#ab4GaE9cf" opacity="1" fill-opacity="0" stroke="#000000" stroke-width="1" stroke-opacity="0"></use></g></g><g><use xlink:href="#a14fsydDAU" opacity="1" fill="#000000" fill-opacity="0.1"></use><g><use xlink:href="#a14fsydDAU" opacity="1" fill-opacity="0" stroke="#000000" stroke-width="1" stroke-opacity="0"></use></g></g><g><use xlink:href="#e2vkTlkiRT" opacity="1" fill="#000000" fill-opacity="0.5"></use><g><use xlink:href="#e2vkTlkiRT" opacity="1" fill-opacity="0" stroke="#000000" stroke-width="1" stroke-opacity="0"></use></g></g></g></svg>