<?xml version="1.0" encoding="UTF-8" standalone="no"?>
<!DOCTYPE svg PUBLIC "-//W3C//DTD SVG 1.1//EN" "http://www.w3.org/Graphics/SVG/1.1/DTD/svg11.dtd">
<svg version="1.1" xmlns="http://www.w3.org/2000/svg" xmlns:xlink="http://www.w3.org/1999/xlink" preserveAspectRatio="xMidYMid meet" viewBox="19.857142857142858 19.85714285714286 24.571428571428594 24.57142857142857" width="20.57" height="20.57"><defs><path d="M41.43 20.86C41.43 33.2 41.43 40.06 41.43 41.43C41.43 41.43 41.43 41.43 41.43 41.43C29.09 41.43 22.23 41.43 20.86 41.43C20.86 41.43 20.86 41.43 20.86 41.43C20.86 29.09 20.86 22.23 20.86 20.86C20.86 20.86 20.86 20.86 20.86 20.86C33.2 20.86 40.06 20.86 41.43 20.86C41.43 20.86 41.43 20.86 41.43 20.86Z" id="ccPcK7QMC"></path><path d="M41.43 20.86C41.43 33.2 41.43 40.06 41.43 41.43C41.43 41.43 41.43 41.43 41.43 41.43C29.09 41.43 22.23 41.43 20.86 41.43C20.86 41.43 20.86 41.43 20.86 41.43C20.86 29.09 20.86 22.23 20.86 20.86C20.86 20.86 20.86 20.86 20.86 20.86C33.2 20.86 40.06 20.86 41.43 20.86C41.43 20.86 41.43 20.86 41.43 20.86Z" id="f12IitcbUI"></path><path d="M20.86 41.43L20.86 20.86L23.43 23.43L23.43 38.86L20.86 41.43Z" id="c3tUrq050"></path><path d="M20.86 20.86L23.43 23.43L38.86 23.43L41.43 20.86" id="eg9H45PNL"></path><path d="M20.86 41.43L23.43 38.86L38.86 38.86L41.43 41.43" id="aA6Wr5G6b"></path><path d="M20.86 41.43L23.43 38.86L38.86 38.86L41.43 41.43" id="a39obGlUGb"></path><path d="M20.86 41.43L20.86 20.86L23.43 23.43L23.43 38.86L20.86 41.43Z" id="a7GHbSoVv"></path><path d="M20.86 20.86L23.43 23.43L38.86 23.43L41.43 20.86" id="bm7TP4eQh"></path></defs><g><g><use xlink:href="#ccPcK7QMC" opacity="1" fill="#b6b9b9" fill-opacity="1"></use><g><use xlink:href="#ccPcK7QMC" opacity="1" fill-opacity="0" stroke="#000000" stroke-width="1" stroke-opacity="0"></use></g></g><g><use xlink:href="#f12IitcbUI" opacity="1" fill="#000000" fill-opacity="0"></use><g><use xlink:href="#f12IitcbUI" opacity="1" fill-opacity="0" stroke="#000000" stroke-width="1" stroke-opacity="0"></use></g></g><g><use xlink:href="#c3tUrq050" opacity="1" fill="#000000" fill-opacity="0.1"></use><g><use xlink:href="#c3tUrq050" opacity="1" fill-opacity="0" stroke="#000000" stroke-width="1" stroke-opacity="0"></use></g></g><g><use xlink:href="#eg9H45PNL" opacity="1" fill="#000000" fill-opacity="0"></use><g><use xlink:href="#eg9H45PNL" opacity="1" fill-opacity="0" stroke="#000000" stroke-width="1" stroke-opacity="0"></use></g></g><g><use xlink:href="#aA6Wr5G6b" opacity="1" fill="#000000" fill-opacity="0"></use><g><use xlink:href="#aA6Wr5G6b" opacity="1" fill-opacity="0" stroke="#000000" stroke-width="1" stroke-opacity="0"></use></g></g><g><use xlink:href="#a39obGlUGb" opacity="1" fill="#000000" fill-opacity="0.5"></use><g><use xlink:href="#a39obGlUGb" opacity="1" fill-opacity="0" stroke="#000000" stroke-width="1" stroke-opacity="0"></use></g></g><g><use xlink:href="#a7GHbSoVv" opacity="1" fill="#000000" fill-opacity="0"></use><g><use xlink:href="#a7GHbSoVv" opacity="1" fill-opacity="0" stroke="#000000" stroke-width="1" stroke-opacity="0"></use></g></g><g><use xlink:href="#bm7TP4eQh" opacity="1" fill="#ffffff" fill-opacity="0.7"></use><g><use xlink:href="#bm7TP4eQh" opacity="1" fill-opacity="0" stroke="#000000" stroke-width="1" stroke-opacity="0"></use></g></g></g></svg>