<?xml version="1.0" encoding="UTF-8" standalone="no"?>
<!DOCTYPE svg PUBLIC "-//W3C//DTD SVG 1.1//EN" "http://www.w3.org/Graphics/SVG/1.1/DTD/svg11.dtd">
<svg version="1.1" xmlns="http://www.w3.org/2000/svg" xmlns:xlink="http://www.w3.org/1999/xlink" preserveAspectRatio="xMidYMid meet" viewBox="107 131 76 52" width="72" height="48"><defs><path d="M132 156C132 156 132 156 132 156C132 170.4 132 178.4 132 180C132 180 132 180 132 180C117.6 180 109.6 180 108 180C108 180 108 180 108 180C108 165.6 108 157.6 108 156C108 156 108 156 108 156C122.4 156 130.4 156 132 156Z" id="b1wmnM7vgX"></path><path d="M108 156L111 159L129 159L132 156" id="f5bXhXFukQ"></path><path d="M111 177L108 180L108 156L111 159L111 177Z" id="a1u0KnVXb5"></path><path d="M108 180L111 177L129 177L132 180" id="bkZawMnwZ"></path><path d="M156 156C156 156 156 156 156 156C156 170.4 156 178.4 156 180C156 180 156 180 156 180C141.6 180 133.6 180 132 180C132 180 132 180 132 180C132 165.6 132 157.6 132 156C132 156 132 156 132 156C146.4 156 154.4 156 156 156Z" id="a1KFEp01xa"></path><path d="M132 156L135 159L153 159L156 156" id="ccu3D2wG6"></path><path d="M135 177L132 180L132 156L135 159L135 177Z" id="dwmZHW8UB"></path><path d="M132 180L135 177L153 177L156 180" id="bqkzUDpVD"></path><path d="M156 132C156 132 156 132 156 132C156 146.4 156 154.4 156 156C156 156 156 156 156 156C141.6 156 133.6 156 132 156C132 156 132 156 132 156C132 141.6 132 133.6 132 132C132 132 132 132 132 132C146.4 132 154.4 132 156 132Z" id="b1t1m8rwyH"></path><path d="M132 132L135 135L153 135L156 132" id="b8Y6vyMYO"></path><path d="M135 153L132 156L132 132L135 135L135 153Z" id="c2b6Bmy79"></path><path d="M132 156L135 153L153 153L156 156" id="d5tz6oM8d"></path><path d="M180 132C180 132 180 132 180 132C180 146.4 180 154.4 180 156C180 156 180 156 180 156C165.6 156 157.6 156 156 156C156 156 156 156 156 156C156 141.6 156 133.6 156 132C156 132 156 132 156 132C170.4 132 178.4 132 180 132Z" id="b3kgZwZ0fn"></path><path d="M156 132L159 135L177 135L180 132" id="abe1UoS2m"></path><path d="M159 153L156 156L156 132L159 135L159 153Z" id="bdaLyNZoc"></path><path d="M156 156L159 153L177 153L180 156" id="aVcpN8beG"></path></defs><g><g><use xlink:href="#b1wmnM7vgX" opacity="1" fill="#00f000" fill-opacity="1"></use><g><use xlink:href="#b1wmnM7vgX" opacity="1" fill-opacity="0" stroke="#000000" stroke-width="1" stroke-opacity="0"></use></g></g><g><use xlink:href="#f5bXhXFukQ" opacity="1" fill="#ffffff" fill-opacity="0.7"></use><g><use xlink:href="#f5bXhXFukQ" opacity="1" fill-opacity="0" stroke="#000000" stroke-width="1" stroke-opacity="0"></use></g></g><g><use xlink:href="#a1u0KnVXb5" opacity="1" fill="#000000" fill-opacity="0.1"></use><g><use xlink:href="#a1u0KnVXb5" opacity="1" fill-opacity="0" stroke="#000000" stroke-width="1" stroke-opacity="0"></use></g></g><g><use xlink:href="#bkZawMnwZ" opacity="1" fill="#000000" fill-opacity="0.5"></use><g><use xlink:href="#bkZawMnwZ" opacity="1" fill-opacity="0" stroke="#000000" stroke-width="1" stroke-opacity="0"></use></g></g><g><use xlink:href="#a1KFEp01xa" opacity="1" fill="#00f000" fill-opacity="1"></use><g><use xlink:href="#a1KFEp01xa" opacity="1" fill-opacity="0" stroke="#000000" stroke-width="1" stroke-opacity="0"></use></g></g><g><use xlink:href="#ccu3D2wG6" opacity="1" fill="#ffffff" fill-opacity="0.7"></use><g><use xlink:href="#ccu3D2wG6" opacity="1" fill-opacity="0" stroke="#000000" stroke-width="1" stroke-opacity="0"></use></g></g><g><use xlink:href="#dwmZHW8UB" opacity="1" fill="#000000" fill-opacity="0.1"></use><g><use xlink:href="#dwmZHW8UB" opacity="1" fill-opacity="0" stroke="#000000" stroke-width="1" stroke-opacity="0"></use></g></g><g><use xlink:href="#bqkzUDpVD" opacity="1" fill="#000000" fill-opacity="0.5"></use><g><use xlink:href="#bqkzUDpVD" opacity="1" fill-opacity="0" stroke="#000000" stroke-width="1" stroke-opacity="0"></use></g></g><g><use xlink:href="#b1t1m8rwyH" opacity="1" fill="#00f000" fill-opacity="1"></use><g><use xlink:href="#b1t1m8rwyH" opacity="1" fill-opacity="0" stroke="#000000" stroke-width="1" stroke-opacity="0"></use></g></g><g><use xlink:href="#b8Y6vyMYO" opacity="1" fill="#ffffff" fill-opacity="0.7"></use><g><use xlink:href="#b8Y6vyMYO" opacity="1" fill-opacity="0" stroke="#000000" stroke-width="1" stroke-opacity="0"></use></g></g><g><use xlink:href="#c2b6Bmy79" opacity="1" fill="#000000" fill-opacity="0.1"></use><g><use xlink:href="#c2b6Bmy79" opacity="1" fill-opacity="0" stroke="#000000" stroke-width="1" stroke-opacity="0"></use></g></g><g><use xlink:href="#d5tz6oM8d" opacity="1" fill="#000000" fill-opacity="0.5"></use><g><use xlink:href="#d5tz6oM8d" opacity="1" fill-opacity="0" stroke="#000000" stroke-width="1" stroke-opacity="0"></use></g></g><g><use xlink:href="#b3kgZwZ0fn" opacity="1" fill="#00f000" fill-opacity="1"></use><g><use xlink:href="#b3kgZwZ0fn" opacity="1" fill-opacity="0" stroke="#000000" stroke-width="1" stroke-opacity="0"></use></g></g><g><use xlink:href="#abe1UoS2m" opacity="1" fill="#ffffff" fill-opacity="0.7"></use><g><use xlink:href="#abe1UoS2m" opacity="1" fill-opacity="0" stroke="#000000" stroke-width="1" stroke-opacity="0"></use></g></g><g><use xlink:href="#bdaLyNZoc" opacity="1" fill="#000000" fill-opacity="0.1"></use><g><use xlink:href="#bdaLyNZoc" opacity="1" fill-opacity="0" stroke="#000000" stroke-width="1" stroke-opacity="0"></use></g></g><g><use xlink:href="#aVcpN8beG" opacity="1" fill="#000000" fill-opacity="0.5"></use><g><use xlink:href="#aVcpN8beG" opacity="1" fill-opacity="0" stroke="#000000" stroke-width="1" stroke-opacity="0"></use></g></g></g></svg>