<?xml version="1.0" encoding="UTF-8" standalone="no"?>
<!DOCTYPE svg PUBLIC "-//W3C//DTD SVG 1.1//EN" "http://www.w3.org/Graphics/SVG/1.1/DTD/svg11.dtd">
<svg version="1.1" xmlns="http://www.w3.org/2000/svg" xmlns:xlink="http://www.w3.org/1999/xlink" preserveAspectRatio="xMidYMid meet" viewBox="115 91 28 28" width="24" height="24"><defs><path d="M140 92C140 92 140 92 140 92C140 106.4 140 114.4 140 116C140 116 140 116 140 116C125.6 116 117.6 116 116 116C116 116 116 116 116 116C116 101.6 116 93.6 116 92C116 92 116 92 116 92C130.4 92 138.4 92 140 92Z" id="c1EUZU5yIr"></path><path d="M116 92L119 95L137 95L140 92" id="aucnMyj3u"></path><path d="M119 113L116 116L116 92L119 95L119 113Z" id="bCUbm9fSD"></path><path d="M116 116L119 113L137 113L140 116" id="c2elgcHWhe"></path></defs><g><g><use xlink:href="#c1EUZU5yIr" opacity="1" fill="#00f000" fill-opacity="1"></use><g><use xlink:href="#c1EUZU5yIr" opacity="1" fill-opacity="0" stroke="#000000" stroke-width="1" stroke-opacity="0"></use></g></g><g><use xlink:href="#aucnMyj3u" opacity="1" fill="#ffffff" fill-opacity="0.7"></use><g><use xlink:href="#aucnMyj3u" opacity="1" fill-opacity="0" stroke="#000000" stroke-width="1" stroke-opacity="0"></use></g></g><g><use xlink:href="#bCUbm9fSD" opacity="1" fill="#000000" fill-opacity="0.1"></use><g><use xlink:href="#bCUbm9fSD" opacity="1" fill-opacity="0" stroke="#000000" stroke-width="1" stroke-opacity="0"></use></g></g><g><use xlink:href="#c2elgcHWhe" opacity="1" fill="#000000" fill-opacity="0.5"></use><g><use xlink:href="#c2elgcHWhe" opacity="1" fill-opacity="0" stroke="#000000" stroke-width="1" stroke-opacity="0"></use></g></g></g></svg>