<?xml version="1.0" encoding="UTF-8" standalone="no"?>
<!DOCTYPE svg PUBLIC "-//W3C//DTD SVG 1.1//EN" "http://www.w3.org/Graphics/SVG/1.1/DTD/svg11.dtd">
<svg version="1.1" xmlns="http://www.w3.org/2000/svg" xmlns:xlink="http://www.w3.org/1999/xlink" preserveAspectRatio="xMidYMid meet" viewBox="235 43 28 28" width="24" height="24"><defs><path d="M260 44C260 44 260 44 260 44C260 58.4 260 66.4 260 68C260 68 260 68 260 68C245.6 68 237.6 68 236 68C236 68 236 68 236 68C236 53.6 236 45.6 236 44C236 44 236 44 236 44C250.4 44 258.4 44 260 44Z" id="a4ZEsR5VxO"></path><path d="M236 44L239 47L257 47L260 44" id="a10psMDZpb"></path><path d="M239 65L236 68L236 44L239 47L239 65Z" id="c24De36d8k"></path><path d="M236 68L239 65L257 65L260 68" id="a2pR5vixa"></path></defs><g><g><use xlink:href="#a4ZEsR5VxO" opacity="1" fill="#f0a000" fill-opacity="1"></use><g><use xlink:href="#a4ZEsR5VxO" opacity="1" fill-opacity="0" stroke="#000000" stroke-width="1" stroke-opacity="0"></use></g></g><g><use xlink:href="#a10psMDZpb" opacity="1" fill="#ffffff" fill-opacity="0.7"></use><g><use xlink:href="#a10psMDZpb" opacity="1" fill-opacity="0" stroke="#000000" stroke-width="1" stroke-opacity="0"></use></g></g><g><use xlink:href="#c24De36d8k" opacity="1" fill="#000000" fill-opacity="0.1"></use><g><use xlink:href="#c24De36d8k" opacity="1" fill-opacity="0" stroke="#000000" stroke-width="1" stroke-opacity="0"></use></g></g><g><use xlink:href="#a2pR5vixa" opacity="1" fill="#000000" fill-opacity="0.5"></use><g><use xlink:href="#a2pR5vixa" opacity="1" fill-opacity="0" stroke="#000000" stroke-width="1" stroke-opacity="0"></use></g></g></g></svg>