<?xml version="1.0" encoding="UTF-8" standalone="no"?>
<!DOCTYPE svg PUBLIC "-//W3C//DTD SVG 1.1//EN" "http://www.w3.org/Graphics/SVG/1.1/DTD/svg11.dtd">
<svg version="1.1" xmlns="http://www.w3.org/2000/svg" xmlns:xlink="http://www.w3.org/1999/xlink" preserveAspectRatio="xMidYMid meet" viewBox="235 19 76 52" width="72" height="48"><defs><path d="M308 20C308 20 308 20 308 20C308 34.4 308 42.4 308 44C308 44 308 44 308 44C293.6 44 285.6 44 284 44C284 44 284 44 284 44C284 29.6 284 21.6 284 20C284 20 284 20 284 20C298.4 20 306.4 20 308 20Z" id="a1eD5gFv5k"></path><path d="M284 20L287 23L305 23L308 20" id="b5o63poiVp"></path><path d="M287 41L284 44L284 20L287 23L287 41Z" id="d86ez85aJR"></path><path d="M284 44L287 41L305 41L308 44" id="d9lxpZ8Cxu"></path><path d="M260 44C260 44 260 44 260 44C260 58.4 260 66.4 260 68C260 68 260 68 260 68C245.6 68 237.6 68 236 68C236 68 236 68 236 68C236 53.6 236 45.6 236 44C236 44 236 44 236 44C250.4 44 258.4 44 260 44Z" id="kmTQfs4Dt"></path><path d="M236 44L239 47L257 47L260 44" id="e1Pl4wWRbv"></path><path d="M239 65L236 68L236 44L239 47L239 65Z" id="e2YYiehIeR"></path><path d="M236 68L239 65L257 65L260 68" id="bpgl3fLk"></path><path d="M284 44C284 44 284 44 284 44C284 58.4 284 66.4 284 68C284 68 284 68 284 68C269.6 68 261.6 68 260 68C260 68 260 68 260 68C260 53.6 260 45.6 260 44C260 44 260 44 260 44C274.4 44 282.4 44 284 44Z" id="a2g6Id8E8B"></path><path d="M260 44L263 47L281 47L284 44" id="a1GBcaiZOY"></path><path d="M263 65L260 68L260 44L263 47L263 65Z" id="c1Qoc6wOCn"></path><path d="M260 68L263 65L281 65L284 68" id="b4YNwkRxsj"></path><path d="M308 44C308 44 308 44 308 44C308 58.4 308 66.4 308 68C308 68 308 68 308 68C293.6 68 285.6 68 284 68C284 68 284 68 284 68C284 53.6 284 45.6 284 44C284 44 284 44 284 44C298.4 44 306.4 44 308 44Z" id="arFHOtKjM"></path><path d="M284 44L287 47L305 47L308 44" id="e7FsJyo3Y"></path><path d="M287 65L284 68L284 44L287 47L287 65Z" id="bLQrjopFL"></path><path d="M284 68L287 65L305 65L308 68" id="cn6kzdTqP"></path></defs><g><g><use xlink:href="#a1eD5gFv5k" opacity="1" fill="#f0a000" fill-opacity="1"></use><g><use xlink:href="#a1eD5gFv5k" opacity="1" fill-opacity="0" stroke="#000000" stroke-width="1" stroke-opacity="0"></use></g></g><g><use xlink:href="#b5o63poiVp" opacity="1" fill="#ffffff" fill-opacity="0.7"></use><g><use xlink:href="#b5o63poiVp" opacity="1" fill-opacity="0" stroke="#000000" stroke-width="1" stroke-opacity="0"></use></g></g><g><use xlink:href="#d86ez85aJR" opacity="1" fill="#000000" fill-opacity="0.1"></use><g><use xlink:href="#d86ez85aJR" opacity="1" fill-opacity="0" stroke="#000000" stroke-width="1" stroke-opacity="0"></use></g></g><g><use xlink:href="#d9lxpZ8Cxu" opacity="1" fill="#000000" fill-opacity="0.5"></use><g><use xlink:href="#d9lxpZ8Cxu" opacity="1" fill-opacity="0" stroke="#000000" stroke-width="1" stroke-opacity="0"></use></g></g><g><use xlink:href="#kmTQfs4Dt" opacity="1" fill="#f0a000" fill-opacity="1"></use><g><use xlink:href="#kmTQfs4Dt" opacity="1" fill-opacity="0" stroke="#000000" stroke-width="1" stroke-opacity="0"></use></g></g><g><use xlink:href="#e1Pl4wWRbv" opacity="1" fill="#ffffff" fill-opacity="0.7"></use><g><use xlink:href="#e1Pl4wWRbv" opacity="1" fill-opacity="0" stroke="#000000" stroke-width="1" stroke-opacity="0"></use></g></g><g><use xlink:href="#e2YYiehIeR" opacity="1" fill="#000000" fill-opacity="0.1"></use><g><use xlink:href="#e2YYiehIeR" opacity="1" fill-opacity="0" stroke="#000000" stroke-width="1" stroke-opacity="0"></use></g></g><g><use xlink:href="#bpgl3fLk" opacity="1" fill="#000000" fill-opacity="0.5"></use><g><use xlink:href="#bpgl3fLk" opacity="1" fill-opacity="0" stroke="#000000" stroke-width="1" stroke-opacity="0"></use></g></g><g><use xlink:href="#a2g6Id8E8B" opacity="1" fill="#f0a000" fill-opacity="1"></use><g><use xlink:href="#a2g6Id8E8B" opacity="1" fill-opacity="0" stroke="#000000" stroke-width="1" stroke-opacity="0"></use></g></g><g><use xlink:href="#a1GBcaiZOY" opacity="1" fill="#ffffff" fill-opacity="0.7"></use><g><use xlink:href="#a1GBcaiZOY" opacity="1" fill-opacity="0" stroke="#000000" stroke-width="1" stroke-opacity="0"></use></g></g><g><use xlink:href="#c1Qoc6wOCn" opacity="1" fill="#000000" fill-opacity="0.1"></use><g><use xlink:href="#c1Qoc6wOCn" opacity="1" fill-opacity="0" stroke="#000000" stroke-width="1" stroke-opacity="0"></use></g></g><g><use xlink:href="#b4YNwkRxsj" opacity="1" fill="#000000" fill-opacity="0.5"></use><g><use xlink:href="#b4YNwkRxsj" opacity="1" fill-opacity="0" stroke="#000000" stroke-width="1" stroke-opacity="0"></use></g></g><g><use xlink:href="#arFHOtKjM" opacity="1" fill="#f0a000" fill-opacity="1"></use><g><use xlink:href="#arFHOtKjM" opacity="1" fill-opacity="0" stroke="#000000" stroke-width="1" stroke-opacity="0"></use></g></g><g><use xlink:href="#e7FsJyo3Y" opacity="1" fill="#ffffff" fill-opacity="0.7"></use><g><use xlink:href="#e7FsJyo3Y" opacity="1" fill-opacity="0" stroke="#000000" stroke-width="1" stroke-opacity="0"></use></g></g><g><use xlink:href="#bLQrjopFL" opacity="1" fill="#000000" fill-opacity="0.1"></use><g><use xlink:href="#bLQrjopFL" opacity="1" fill-opacity="0" stroke="#000000" stroke-width="1" stroke-opacity="0"></use></g></g><g><use xlink:href="#cn6kzdTqP" opacity="1" fill="#000000" fill-opacity="0.5"></use><g><use xlink:href="#cn6kzdTqP" opacity="1" fill-opacity="0" stroke="#000000" stroke-width="1" stroke-opacity="0"></use></g></g></g></svg>