<?xml version="1.0" encoding="UTF-8" standalone="no"?>
<!DOCTYPE svg PUBLIC "-//W3C//DTD SVG 1.1//EN" "http://www.w3.org/Graphics/SVG/1.1/DTD/svg11.dtd">
<svg version="1.1" xmlns="http://www.w3.org/2000/svg" xmlns:xlink="http://www.w3.org/1999/xlink" preserveAspectRatio="xMidYMid meet" viewBox="163 91 76 52" width="72" height="48"><defs><path d="M188 116C188 116 188 116 188 116C188 130.4 188 138.4 188 140C188 140 188 140 188 140C173.6 140 165.6 140 164 140C164 140 164 140 164 140C164 125.6 164 117.6 164 116C164 116 164 116 164 116C178.4 116 186.4 116 188 116Z" id="k23wBkeM6"></path><path d="M164 116L167 119L185 119L188 116" id="b1wKcTJyOJ"></path><path d="M167 137L164 140L164 116L167 119L167 137Z" id="b7cRgPChP"></path><path d="M164 140L167 137L185 137L188 140" id="bgZMyq4K7"></path><path d="M212 116C212 116 212 116 212 116C212 130.4 212 138.4 212 140C212 140 212 140 212 140C197.6 140 189.6 140 188 140C188 140 188 140 188 140C188 125.6 188 117.6 188 116C188 116 188 116 188 116C202.4 116 210.4 116 212 116Z" id="eYr87HqGk"></path><path d="M188 116L191 119L209 119L212 116" id="culafuuVm"></path><path d="M191 137L188 140L188 116L191 119L191 137Z" id="gsoITEbHn"></path><path d="M188 140L191 137L209 137L212 140" id="l2v2TFXBPV"></path><path d="M236 116C236 116 236 116 236 116C236 130.4 236 138.4 236 140C236 140 236 140 236 140C221.6 140 213.6 140 212 140C212 140 212 140 212 140C212 125.6 212 117.6 212 116C212 116 212 116 212 116C226.4 116 234.4 116 236 116Z" id="d44Sajvfi"></path><path d="M212 116L215 119L233 119L236 116" id="e773aizwV3"></path><path d="M215 137L212 140L212 116L215 119L215 137Z" id="d7h0v94Cp"></path><path d="M212 140L215 137L233 137L236 140" id="bXsmmsyUt"></path><path d="M212 92C212 92 212 92 212 92C212 106.4 212 114.4 212 116C212 116 212 116 212 116C197.6 116 189.6 116 188 116C188 116 188 116 188 116C188 101.6 188 93.6 188 92C188 92 188 92 188 92C202.4 92 210.4 92 212 92Z" id="aaGST5V0y"></path><path d="M188 92L191 95L209 95L212 92" id="e2sxFIByhf"></path><path d="M191 113L188 116L188 92L191 95L191 113Z" id="fROqalXHV"></path></defs><g><g><use xlink:href="#k23wBkeM6" opacity="1" fill="#a000f0" fill-opacity="1"></use><g><use xlink:href="#k23wBkeM6" opacity="1" fill-opacity="0" stroke="#000000" stroke-width="1" stroke-opacity="0"></use></g></g><g><use xlink:href="#b1wKcTJyOJ" opacity="1" fill="#ffffff" fill-opacity="0.7"></use><g><use xlink:href="#b1wKcTJyOJ" opacity="1" fill-opacity="0" stroke="#000000" stroke-width="1" stroke-opacity="0"></use></g></g><g><use xlink:href="#b7cRgPChP" opacity="1" fill="#000000" fill-opacity="0.1"></use><g><use xlink:href="#b7cRgPChP" opacity="1" fill-opacity="0" stroke="#000000" stroke-width="1" stroke-opacity="0"></use></g></g><g><use xlink:href="#bgZMyq4K7" opacity="1" fill="#000000" fill-opacity="0.5"></use><g><use xlink:href="#bgZMyq4K7" opacity="1" fill-opacity="0" stroke="#000000" stroke-width="1" stroke-opacity="0"></use></g></g><g><use xlink:href="#eYr87HqGk" opacity="1" fill="#a000f0" fill-opacity="1"></use><g><use xlink:href="#eYr87HqGk" opacity="1" fill-opacity="0" stroke="#000000" stroke-width="1" stroke-opacity="0"></use></g></g><g><use xlink:href="#culafuuVm" opacity="1" fill="#ffffff" fill-opacity="0.7"></use><g><use xlink:href="#culafuuVm" opacity="1" fill-opacity="0" stroke="#000000" stroke-width="1" stroke-opacity="0"></use></g></g><g><use xlink:href="#gsoITEbHn" opacity="1" fill="#000000" fill-opacity="0.1"></use><g><use xlink:href="#gsoITEbHn" opacity="1" fill-opacity="0" stroke="#000000" stroke-width="1" stroke-opacity="0"></use></g></g><g><use xlink:href="#l2v2TFXBPV" opacity="1" fill="#000000" fill-opacity="0.5"></use><g><use xlink:href="#l2v2TFXBPV" opacity="1" fill-opacity="0" stroke="#000000" stroke-width="1" stroke-opacity="0"></use></g></g><g><use xlink:href="#d44Sajvfi" opacity="1" fill="#a000f0" fill-opacity="1"></use><g><use xlink:href="#d44Sajvfi" opacity="1" fill-opacity="0" stroke="#000000" stroke-width="1" stroke-opacity="0"></use></g></g><g><use xlink:href="#e773aizwV3" opacity="1" fill="#ffffff" fill-opacity="0.7"></use><g><use xlink:href="#e773aizwV3" opacity="1" fill-opacity="0" stroke="#000000" stroke-width="1" stroke-opacity="0"></use></g></g><g><use xlink:href="#d7h0v94Cp" opacity="1" fill="#000000" fill-opacity="0.1"></use><g><use xlink:href="#d7h0v94Cp" opacity="1" fill-opacity="0" stroke="#000000" stroke-width="1" stroke-opacity="0"></use></g></g><g><use xlink:href="#bXsmmsyUt" opacity="1" fill="#000000" fill-opacity="0.5"></use><g><use xlink:href="#bXsmmsyUt" opacity="1" fill-opacity="0" stroke="#000000" stroke-width="1" stroke-opacity="0"></use></g></g><g><use xlink:href="#aaGST5V0y" opacity="1" fill="#a000f0" fill-opacity="1"></use><g><use xlink:href="#aaGST5V0y" opacity="1" fill-opacity="0" stroke="#000000" stroke-width="1" stroke-opacity="0"></use></g></g><g><use xlink:href="#e2sxFIByhf" opacity="1" fill="#ffffff" fill-opacity="0.7"></use><g><use xlink:href="#e2sxFIByhf" opacity="1" fill-opacity="0" stroke="#000000" stroke-width="1" stroke-opacity="0"></use></g></g><g><use xlink:href="#fROqalXHV" opacity="1" fill="#000000" fill-opacity="0.1"></use><g><use xlink:href="#fROqalXHV" opacity="1" fill-opacity="0" stroke="#000000" stroke-width="1" stroke-opacity="0"></use></g></g></g></svg>