<?xml version="1.0" encoding="UTF-8" standalone="no"?>
<!DOCTYPE svg PUBLIC "-//W3C//DTD SVG 1.1//EN" "http://www.w3.org/Graphics/SVG/1.1/DTD/svg11.dtd">
<svg version="1.1" xmlns="http://www.w3.org/2000/svg" xmlns:xlink="http://www.w3.org/1999/xlink" preserveAspectRatio="xMidYMid meet" viewBox="187 115 28 28" width="24" height="24"><defs><path d="M212 116C212 116 212 116 212 116C212 130.4 212 138.4 212 140C212 140 212 140 212 140C197.6 140 189.6 140 188 140C188 140 188 140 188 140C188 125.6 188 117.6 188 116C188 116 188 116 188 116C202.4 116 210.4 116 212 116Z" id="e2UfFW1Ffu"></path><path d="M188 116L191 119L209 119L212 116" id="b7FxlDxhHx"></path><path d="M191 137L188 140L188 116L191 119L191 137Z" id="a3uoTBiRCM"></path><path d="M188 140L191 137L209 137L212 140" id="gCI8JoMwb"></path></defs><g><g><use xlink:href="#e2UfFW1Ffu" opacity="1" fill="#a000f0" fill-opacity="1"></use><g><use xlink:href="#e2UfFW1Ffu" opacity="1" fill-opacity="0" stroke="#000000" stroke-width="1" stroke-opacity="0"></use></g></g><g><use xlink:href="#b7FxlDxhHx" opacity="1" fill="#ffffff" fill-opacity="0.7"></use><g><use xlink:href="#b7FxlDxhHx" opacity="1" fill-opacity="0" stroke="#000000" stroke-width="1" stroke-opacity="0"></use></g></g><g><use xlink:href="#a3uoTBiRCM" opacity="1" fill="#000000" fill-opacity="0.1"></use><g><use xlink:href="#a3uoTBiRCM" opacity="1" fill-opacity="0" stroke="#000000" stroke-width="1" stroke-opacity="0"></use></g></g><g><use xlink:href="#gCI8JoMwb" opacity="1" fill="#000000" fill-opacity="0.5"></use><g><use xlink:href="#gCI8JoMwb" opacity="1" fill-opacity="0" stroke="#000000" stroke-width="1" stroke-opacity="0"></use></g></g></g></svg>