<?xml version="1.0" encoding="UTF-8" standalone="no"?>
<!DOCTYPE svg PUBLIC "-//W3C//DTD SVG 1.1//EN" "http://www.w3.org/Graphics/SVG/1.1/DTD/svg11.dtd">
<svg version="1.1" xmlns="http://www.w3.org/2000/svg" xmlns:xlink="http://www.w3.org/1999/xlink" preserveAspectRatio="xMidYMid meet" viewBox="283 115 28 28" width="24" height="24"><defs><path d="M308 116C308 116 308 116 308 116C308 130.4 308 138.4 308 140C308 140 308 140 308 140C293.6 140 285.6 140 284 140C284 140 284 140 284 140C284 125.6 284 117.6 284 116C284 116 284 116 284 116C298.4 116 306.4 116 308 116Z" id="bvKTHXstA"></path><path d="M284 116L287 119L305 119L308 116" id="bP7ImwZdK"></path><path d="M287 137L284 140L284 116L287 119L287 137Z" id="c3ulL4KBQW"></path><path d="M284 140L287 137L305 137L308 140" id="caz7Wv2G2"></path></defs><g><g><use xlink:href="#bvKTHXstA" opacity="1" fill="#f00000" fill-opacity="1"></use><g><use xlink:href="#bvKTHXstA" opacity="1" fill-opacity="0" stroke="#000000" stroke-width="1" stroke-opacity="0"></use></g></g><g><use xlink:href="#bP7ImwZdK" opacity="1" fill="#ffffff" fill-opacity="0.7"></use><g><use xlink:href="#bP7ImwZdK" opacity="1" fill-opacity="0" stroke="#000000" stroke-width="1" stroke-opacity="0"></use></g></g><g><use xlink:href="#c3ulL4KBQW" opacity="1" fill="#000000" fill-opacity="0.1"></use><g><use xlink:href="#c3ulL4KBQW" opacity="1" fill-opacity="0" stroke="#000000" stroke-width="1" stroke-opacity="0"></use></g></g><g><use xlink:href="#caz7Wv2G2" opacity="1" fill="#000000" fill-opacity="0.5"></use><g><use xlink:href="#caz7Wv2G2" opacity="1" fill-opacity="0" stroke="#000000" stroke-width="1" stroke-opacity="0"></use></g></g></g></svg>