<?xml version="1.0" encoding="UTF-8" standalone="no"?>
<!DOCTYPE svg PUBLIC "-//W3C//DTD SVG 1.1//EN" "http://www.w3.org/Graphics/SVG/1.1/DTD/svg11.dtd">
<svg version="1.1" xmlns="http://www.w3.org/2000/svg" xmlns:xlink="http://www.w3.org/1999/xlink" preserveAspectRatio="xMidYMid meet" viewBox="259 91 76 52" width="72" height="48"><defs><path d="M308 92C308 92 308 92 308 92C308 106.4 308 114.4 308 116C308 116 308 116 308 116C293.6 116 285.6 116 284 116C284 116 284 116 284 116C284 101.6 284 93.6 284 92C284 92 284 92 284 92C298.4 92 306.4 92 308 92Z" id="ejtvSQkBp"></path><path d="M284 92L287 95L305 95L308 92" id="affX13VGT"></path><path d="M287 113L284 116L284 92L287 95L287 113Z" id="a6jJYOl2VP"></path><path d="M284 116L287 113L305 113L308 116" id="bdC8UBI8b"></path><path d="M284 92C284 92 284 92 284 92C284 106.4 284 114.4 284 116C284 116 284 116 284 116C269.6 116 261.6 116 260 116C260 116 260 116 260 116C260 101.6 260 93.6 260 92C260 92 260 92 260 92C274.4 92 282.4 92 284 92Z" id="c2nDVyW6PQ"></path><path d="M260 92L263 95L281 95L284 92" id="cnseBN0vq"></path><path d="M263 113L260 116L260 92L263 95L263 113Z" id="buAdEqgLq"></path><path d="M260 116L263 113L281 113L284 116" id="c5t0rgKXjO"></path><path d="M332 116C332 116 332 116 332 116C332 130.4 332 138.4 332 140C332 140 332 140 332 140C317.6 140 309.6 140 308 140C308 140 308 140 308 140C308 125.6 308 117.6 308 116C308 116 308 116 308 116C322.4 116 330.4 116 332 116Z" id="a1n8LwKi3I"></path><path d="M308 116L311 119L329 119L332 116" id="h1cPEATUxm"></path><path d="M311 137L308 140L308 116L311 119L311 137Z" id="c13Bcj7YZn"></path><path d="M308 140L311 137L329 137L332 140" id="b3mxXzX4qL"></path><path d="M308 116C308 116 308 116 308 116C308 130.4 308 138.4 308 140C308 140 308 140 308 140C293.6 140 285.6 140 284 140C284 140 284 140 284 140C284 125.6 284 117.6 284 116C284 116 284 116 284 116C298.4 116 306.4 116 308 116Z" id="b1LvEBw07a"></path><path d="M284 116L287 119L305 119L308 116" id="g2n2dmx9Xh"></path><path d="M287 137L284 140L284 116L287 119L287 137Z" id="bcc8BzCNB"></path><path d="M284 140L287 137L305 137L308 140" id="b2QhhxHZAN"></path></defs><g><g><use xlink:href="#ejtvSQkBp" opacity="1" fill="#f00000" fill-opacity="1"></use><g><use xlink:href="#ejtvSQkBp" opacity="1" fill-opacity="0" stroke="#000000" stroke-width="1" stroke-opacity="0"></use></g></g><g><use xlink:href="#affX13VGT" opacity="1" fill="#ffffff" fill-opacity="0.7"></use><g><use xlink:href="#affX13VGT" opacity="1" fill-opacity="0" stroke="#000000" stroke-width="1" stroke-opacity="0"></use></g></g><g><use xlink:href="#a6jJYOl2VP" opacity="1" fill="#000000" fill-opacity="0.1"></use><g><use xlink:href="#a6jJYOl2VP" opacity="1" fill-opacity="0" stroke="#000000" stroke-width="1" stroke-opacity="0"></use></g></g><g><use xlink:href="#bdC8UBI8b" opacity="1" fill="#000000" fill-opacity="0.5"></use><g><use xlink:href="#bdC8UBI8b" opacity="1" fill-opacity="0" stroke="#000000" stroke-width="1" stroke-opacity="0"></use></g></g><g><use xlink:href="#c2nDVyW6PQ" opacity="1" fill="#f00000" fill-opacity="1"></use><g><use xlink:href="#c2nDVyW6PQ" opacity="1" fill-opacity="0" stroke="#000000" stroke-width="1" stroke-opacity="0"></use></g></g><g><use xlink:href="#cnseBN0vq" opacity="1" fill="#ffffff" fill-opacity="0.7"></use><g><use xlink:href="#cnseBN0vq" opacity="1" fill-opacity="0" stroke="#000000" stroke-width="1" stroke-opacity="0"></use></g></g><g><use xlink:href="#buAdEqgLq" opacity="1" fill="#000000" fill-opacity="0.1"></use><g><use xlink:href="#buAdEqgLq" opacity="1" fill-opacity="0" stroke="#000000" stroke-width="1" stroke-opacity="0"></use></g></g><g><use xlink:href="#c5t0rgKXjO" opacity="1" fill="#000000" fill-opacity="0.5"></use><g><use xlink:href="#c5t0rgKXjO" opacity="1" fill-opacity="0" stroke="#000000" stroke-width="1" stroke-opacity="0"></use></g></g><g><use xlink:href="#a1n8LwKi3I" opacity="1" fill="#f00000" fill-opacity="1"></use><g><use xlink:href="#a1n8LwKi3I" opacity="1" fill-opacity="0" stroke="#000000" stroke-width="1" stroke-opacity="0"></use></g></g><g><use xlink:href="#h1cPEATUxm" opacity="1" fill="#ffffff" fill-opacity="0.7"></use><g><use xlink:href="#h1cPEATUxm" opacity="1" fill-opacity="0" stroke="#000000" stroke-width="1" stroke-opacity="0"></use></g></g><g><use xlink:href="#c13Bcj7YZn" opacity="1" fill="#000000" fill-opacity="0.1"></use><g><use xlink:href="#c13Bcj7YZn" opacity="1" fill-opacity="0" stroke="#000000" stroke-width="1" stroke-opacity="0"></use></g></g><g><use xlink:href="#b3mxXzX4qL" opacity="1" fill="#000000" fill-opacity="0.5"></use><g><use xlink:href="#b3mxXzX4qL" opacity="1" fill-opacity="0" stroke="#000000" stroke-width="1" stroke-opacity="0"></use></g></g><g><use xlink:href="#b1LvEBw07a" opacity="1" fill="#f00000" fill-opacity="1"></use><g><use xlink:href="#b1LvEBw07a" opacity="1" fill-opacity="0" stroke="#000000" stroke-width="1" stroke-opacity="0"></use></g></g><g><use xlink:href="#g2n2dmx9Xh" opacity="1" fill="#ffffff" fill-opacity="0.7"></use><g><use xlink:href="#g2n2dmx9Xh" opacity="1" fill-opacity="0" stroke="#000000" stroke-width="1" stroke-opacity="0"></use></g></g><g><use xlink:href="#bcc8BzCNB" opacity="1" fill="#000000" fill-opacity="0.1"></use><g><use xlink:href="#bcc8BzCNB" opacity="1" fill-opacity="0" stroke="#000000" stroke-width="1" stroke-opacity="0"></use></g></g><g><use xlink:href="#b2QhhxHZAN" opacity="1" fill="#000000" fill-opacity="0.5"></use><g><use xlink:href="#b2QhhxHZAN" opacity="1" fill-opacity="0" stroke="#000000" stroke-width="1" stroke-opacity="0"></use></g></g></g></svg>