<?xml version="1.0" encoding="UTF-8" standalone="no"?>
<!DOCTYPE svg PUBLIC "-//W3C//DTD SVG 1.1//EN" "http://www.w3.org/Graphics/SVG/1.1/DTD/svg11.dtd">
<svg version="1.1" xmlns="http://www.w3.org/2000/svg" xmlns:xlink="http://www.w3.org/1999/xlink" preserveAspectRatio="xMidYMid meet" viewBox="331 19 52 52" width="48" height="48"><defs><path d="M356 20C356 20 356 20 356 20C356 34.4 356 42.4 356 44C356 44 356 44 356 44C341.6 44 333.6 44 332 44C332 44 332 44 332 44C332 29.6 332 21.6 332 20C332 20 332 20 332 20C346.4 20 354.4 20 356 20Z" id="dtE7RChIY"></path><path d="M332 20L335 23L353 23L356 20" id="hM8ZZbMoh"></path><path d="M335 41L332 44L332 20L335 23L335 41Z" id="g35ku7qijF"></path><path d="M332 44L335 41L353 41L356 44" id="a1HY8vOop2"></path><path d="M380 20C380 20 380 20 380 20C380 34.4 380 42.4 380 44C380 44 380 44 380 44C365.6 44 357.6 44 356 44C356 44 356 44 356 44C356 29.6 356 21.6 356 20C356 20 356 20 356 20C370.4 20 378.4 20 380 20Z" id="alNbItq"></path><path d="M356 20L359 23L377 23L380 20" id="djomluKUH"></path><path d="M359 41L356 44L356 20L359 23L359 41Z" id="cvSpZUlB"></path><path d="M356 44L359 41L377 41L380 44" id="b1mKepmq3X"></path><path d="M356 44C356 44 356 44 356 44C356 58.4 356 66.4 356 68C356 68 356 68 356 68C341.6 68 333.6 68 332 68C332 68 332 68 332 68C332 53.6 332 45.6 332 44C332 44 332 44 332 44C346.4 44 354.4 44 356 44Z" id="av9MOCARA"></path><path d="M332 44L335 47L353 47L356 44" id="d2jyDeJ6om"></path><path d="M335 65L332 68L332 44L335 47L335 65Z" id="ac00IVD4z"></path><path d="M332 68L335 65L353 65L356 68" id="cixphDzL9"></path><path d="M380 44C380 44 380 44 380 44C380 58.4 380 66.4 380 68C380 68 380 68 380 68C365.6 68 357.6 68 356 68C356 68 356 68 356 68C356 53.6 356 45.6 356 44C356 44 356 44 356 44C370.4 44 378.4 44 380 44Z" id="b1jGUBMJk"></path><path d="M356 44L359 47L377 47L380 44" id="a58QmJZ0H"></path><path d="M359 65L356 68L356 44L359 47L359 65Z" id="e2kU9n8itg"></path><path d="M356 68L359 65L377 65L380 68" id="dHJHRMwIO"></path></defs><g><g><use xlink:href="#dtE7RChIY" opacity="1" fill="#f0f000" fill-opacity="1"></use><g><use xlink:href="#dtE7RChIY" opacity="1" fill-opacity="0" stroke="#000000" stroke-width="1" stroke-opacity="0"></use></g></g><g><use xlink:href="#hM8ZZbMoh" opacity="1" fill="#ffffff" fill-opacity="0.7"></use><g><use xlink:href="#hM8ZZbMoh" opacity="1" fill-opacity="0" stroke="#000000" stroke-width="1" stroke-opacity="0"></use></g></g><g><use xlink:href="#g35ku7qijF" opacity="1" fill="#000000" fill-opacity="0.1"></use><g><use xlink:href="#g35ku7qijF" opacity="1" fill-opacity="0" stroke="#000000" stroke-width="1" stroke-opacity="0"></use></g></g><g><use xlink:href="#a1HY8vOop2" opacity="1" fill="#000000" fill-opacity="0.5"></use><g><use xlink:href="#a1HY8vOop2" opacity="1" fill-opacity="0" stroke="#000000" stroke-width="1" stroke-opacity="0"></use></g></g><g><use xlink:href="#alNbItq" opacity="1" fill="#f0f000" fill-opacity="1"></use><g><use xlink:href="#alNbItq" opacity="1" fill-opacity="0" stroke="#000000" stroke-width="1" stroke-opacity="0"></use></g></g><g><use xlink:href="#djomluKUH" opacity="1" fill="#ffffff" fill-opacity="0.7"></use><g><use xlink:href="#djomluKUH" opacity="1" fill-opacity="0" stroke="#000000" stroke-width="1" stroke-opacity="0"></use></g></g><g><use xlink:href="#cvSpZUlB" opacity="1" fill="#000000" fill-opacity="0.1"></use><g><use xlink:href="#cvSpZUlB" opacity="1" fill-opacity="0" stroke="#000000" stroke-width="1" stroke-opacity="0"></use></g></g><g><use xlink:href="#b1mKepmq3X" opacity="1" fill="#000000" fill-opacity="0.5"></use><g><use xlink:href="#b1mKepmq3X" opacity="1" fill-opacity="0" stroke="#000000" stroke-width="1" stroke-opacity="0"></use></g></g><g><use xlink:href="#av9MOCARA" opacity="1" fill="#f0f000" fill-opacity="1"></use><g><use xlink:href="#av9MOCARA" opacity="1" fill-opacity="0" stroke="#000000" stroke-width="1" stroke-opacity="0"></use></g></g><g><use xlink:href="#d2jyDeJ6om" opacity="1" fill="#ffffff" fill-opacity="0.7"></use><g><use xlink:href="#d2jyDeJ6om" opacity="1" fill-opacity="0" stroke="#000000" stroke-width="1" stroke-opacity="0"></use></g></g><g><use xlink:href="#ac00IVD4z" opacity="1" fill="#000000" fill-opacity="0.1"></use><g><use xlink:href="#ac00IVD4z" opacity="1" fill-opacity="0" stroke="#000000" stroke-width="1" stroke-opacity="0"></use></g></g><g><use xlink:href="#cixphDzL9" opacity="1" fill="#000000" fill-opacity="0.5"></use><g><use xlink:href="#cixphDzL9" opacity="1" fill-opacity="0" stroke="#000000" stroke-width="1" stroke-opacity="0"></use></g></g><g><use xlink:href="#b1jGUBMJk" opacity="1" fill="#f0f000" fill-opacity="1"></use><g><use xlink:href="#b1jGUBMJk" opacity="1" fill-opacity="0" stroke="#000000" stroke-width="1" stroke-opacity="0"></use></g></g><g><use xlink:href="#a58QmJZ0H" opacity="1" fill="#ffffff" fill-opacity="0.7"></use><g><use xlink:href="#a58QmJZ0H" opacity="1" fill-opacity="0" stroke="#000000" stroke-width="1" stroke-opacity="0"></use></g></g><g><use xlink:href="#e2kU9n8itg" opacity="1" fill="#000000" fill-opacity="0.1"></use><g><use xlink:href="#e2kU9n8itg" opacity="1" fill-opacity="0" stroke="#000000" stroke-width="1" stroke-opacity="0"></use></g></g><g><use xlink:href="#dHJHRMwIO" opacity="1" fill="#000000" fill-opacity="0.5"></use><g><use xlink:href="#dHJHRMwIO" opacity="1" fill-opacity="0" stroke="#000000" stroke-width="1" stroke-opacity="0"></use></g></g></g></svg>