<?xml version="1.0" encoding="UTF-8" standalone="no"?>
<!DOCTYPE svg PUBLIC "-//W3C//DTD SVG 1.1//EN" "http://www.w3.org/Graphics/SVG/1.1/DTD/svg11.dtd">
<svg version="1.1" xmlns="http://www.w3.org/2000/svg" xmlns:xlink="http://www.w3.org/1999/xlink" preserveAspectRatio="xMidYMid meet" viewBox="331 43 28 28" width="24" height="24"><defs><path d="M356 44C356 44 356 44 356 44C356 58.4 356 66.4 356 68C356 68 356 68 356 68C341.6 68 333.6 68 332 68C332 68 332 68 332 68C332 53.6 332 45.6 332 44C332 44 332 44 332 44C346.4 44 354.4 44 356 44Z" id="b4xJeG57"></path><path d="M332 44L335 47L353 47L356 44" id="a1BMV0nGRm"></path><path d="M335 65L332 68L332 44L335 47L335 65Z" id="c1Op8X7ow"></path><path d="M332 68L335 65L353 65L356 68" id="a1xYii5KxH"></path></defs><g><g><use xlink:href="#b4xJeG57" opacity="1" fill="#f0f000" fill-opacity="1"></use><g><use xlink:href="#b4xJeG57" opacity="1" fill-opacity="0" stroke="#000000" stroke-width="1" stroke-opacity="0"></use></g></g><g><use xlink:href="#a1BMV0nGRm" opacity="1" fill="#ffffff" fill-opacity="0.7"></use><g><use xlink:href="#a1BMV0nGRm" opacity="1" fill-opacity="0" stroke="#000000" stroke-width="1" stroke-opacity="0"></use></g></g><g><use xlink:href="#c1Op8X7ow" opacity="1" fill="#000000" fill-opacity="0.1"></use><g><use xlink:href="#c1Op8X7ow" opacity="1" fill-opacity="0" stroke="#000000" stroke-width="1" stroke-opacity="0"></use></g></g><g><use xlink:href="#a1xYii5KxH" opacity="1" fill="#000000" fill-opacity="0.5"></use><g><use xlink:href="#a1xYii5KxH" opacity="1" fill-opacity="0" stroke="#000000" stroke-width="1" stroke-opacity="0"></use></g></g></g></svg>